<?xml version="1.0" standalone="no"?>
<!DOCTYPE svg PUBLIC "-//W3C//DTD SVG 20010904//EN"
 "http://www.w3.org/TR/2001/REC-SVG-20010904/DTD/svg10.dtd">
<svg version="1.0" xmlns="http://www.w3.org/2000/svg"
 width="259.000000pt" height="259.000000pt" viewBox="0 0 259.000000 259.000000"
 preserveAspectRatio="xMidYMid meet">
<metadata>
Created by potrace 1.14, written by Peter Selinger 2001-2017
</metadata>
<g transform="translate(0.000000,259.000000) scale(0.100000,-0.100000)"
fill="#000000" stroke="none">
<path d="M0 1295 l0 -1295 1295 0 1295 0 0 1295 0 1295 -1295 0 -1295 0 0
-1295z m910 70 l5 -180 88 -3 c79 -3 87 -5 87 -22 0 -19 -7 -20 -120 -20
l-120 0 0 198 c0 109 3 202 7 206 4 4 16 6 28 4 19 -3 20 -11 25 -183z m449
174 c33 -12 61 -52 61 -89 0 -29 -26 -76 -47 -84 -14 -6 -12 -10 15 -26 41
-25 56 -59 48 -104 -12 -62 -87 -106 -183 -106 -54 0 -73 8 -73 30 0 15 11 18
79 21 93 5 121 22 121 75 0 42 -25 60 -98 69 -42 6 -52 11 -50 24 2 9 14 17
28 19 74 8 100 27 100 72 0 48 -24 63 -97 58 -60 -4 -63 -3 -63 18 0 13 7 24
18 27 34 9 110 7 141 -4z m389 -126 l3 -132 32 -3 c24 -2 33 -8 35 -25 3 -20
-1 -23 -32 -23 -36 0 -36 0 -36 -45 0 -43 -1 -45 -30 -45 -29 0 -30 2 -30 45
l0 45 -95 0 c-94 0 -95 0 -95 24 0 14 38 84 88 161 86 134 87 135 122 133 l35
-3 3 -132z m-1117 -15 c54 -45 99 -86 99 -90 0 -9 -188 -168 -199 -168 -10 0
-36 29 -30 33 39 29 159 131 159 136 -1 3 -35 33 -76 66 -42 33 -78 64 -81 68
-4 8 14 37 24 37 3 0 49 -37 104 -82z m1557 -365 c-3 -16 -21 -18 -176 -21
-167 -2 -172 -2 -172 18 0 19 6 20 176 20 162 0 175 -1 172 -17z"/>
<path d="M1622 1383 l-62 -98 61 -3 c34 -2 63 -1 66 1 2 3 2 48 1 101 l-3 96
-63 -97z"/>
</g>
</svg>
